# xmcd CD database file
#
# Track frame offsets:
#	150
#	8371
#	21676
#	32574
#	44051
#	55637
#	67072
#	82149
#	92424
#	106487
#	118978
#	133187
#	149443
#	161538
#	175534
#	190149
#	203963
#	214184
#	229275
#	244292
#	251248
#	267728
#	282250
#	295084
#
# Disc length: 4096 seconds
#
# Revision: 0
# Processed by: cddbd v1.5.1PL0 Copyright (c) Steve Scherf et al.
# Submitted via: CDex 1.51
#
DISCID=760ffe18
DTITLE=Haukur Mortens - Ó Borg Mín Borg
DYEAR=1900
DGENRE=Jazz
TTITLE0=Með blik í augum
TTITLE1=Kaupakonan Hans Gísla Í Gröf
TTITLE2=Ég er farmaður fæddur á landi
TTITLE3=Bjössi kvennagull
TTITLE4=Lóa litla á Brún
TTITLE5=Rock-Calypso í réttunum
TTITLE6=Hæ Mambo
TTITLE7=Ég er kominn heim
TTITLE8=Gunnar póstur
TTITLE9=Bláu augun
TTITLE10=Frostrósir
TTITLE11=Þrek og tár
TTITLE12=Capri katarína
TTITLE13=Stína, ó Stína
TTITLE14=Brúnaljósin brúnu
TTITLE15=Í kvöld
TTITLE16=Eldur í öskunni leynist
TTITLE17=Heimkynni bernskunnar
TTITLE18=Til eru fræ
TTITLE19=Suður um höfin
TTITLE20=Þér ég ann
TTITLE21=Nú veit ég
TTITLE22=Hvar ertu
TTITLE23=Ó borg mín borg
EXTD=
EXTT0=
EXTT1=
EXTT2=
EXTT3=
EXTT4=
EXTT5=
EXTT6=
EXTT7=
EXTT8=
EXTT9=
EXTT10=
EXTT11=
EXTT12=
EXTT13=
EXTT14=
EXTT15=
EXTT16=
EXTT17=
EXTT18=
EXTT19=
EXTT20=
EXTT21=
EXTT22=
EXTT23=
PLAYORDER=
